<svg width="1211" height="1231" fill="none" xmlns="http://www.w3.org/2000/svg">
    <style>
        @media (prefers-color-scheme: dark) {
            path {
                fill: #DFB866;
            }
        }
    </style>
    <path
        d="M565.996 1.917C265.244 25.627 25.306 265.564 1.597 566.316c-2.13 27.017-2.13 71.047 0 98.063 23.71 300.752 263.647 540.691 564.399 564.401 27.017 2.13 71.047 2.11 98.061-.05 258.24-20.66 476.413-201.73 544.303-451.741 7.1-26.153-.61-29.07-17.33-7.753-81.58 103.963-202.099 170.35-333.568 183.74-26.956 2.746-71.036 2.767-97.998.072-229.746-22.961-412.437-205.652-435.398-435.398-2.695-26.961-2.687-71.041.036-98C342.103 241.421 457.027 87.108 622.63 18.806 647.679 8.475 646.956.253 619.857.016c-2.667-.024-26.844-.229-53.861 1.901z"
        fill="#CD8F0E" />
    <path
        d="M820.466 58.52a81.467 81.467 0 000 162.933 81.466 81.466 0 0080.003-66.398 64.46 64.46 0 01-54.394 29.962 64.455 64.455 0 01-59.545-39.787 64.454 64.454 0 01-4.907-24.664 64.453 64.453 0 0145.971-61.726 81.472 81.472 0 00-7.128-.32z"
        fill="#CD8F0E" />
    <path
        d="M822.423 83.309l41.245-6.113 18.731-36.043 18.116 35.722 41.147 5.395-30.05 28.19 6.699 39.377-36.687-18.299-37.006 18.941 7.375-39.5-29.57-27.67zM613.872 554.809v416.253h106.371V810.281c0-64.663 44.371-116.721 99.49-116.721 55.118 0 99.492 52.058 99.492 116.721v160.781h106.365V554.809H613.872zM819.733 179.387c-84.729 69.148-205.861 111.258-205.861 290.991V524.2h15.736c.314-25.419 17.984-28.036 17.984-28.036s16.581 2.578 16.581 28.036h34.56c.977-28.47 17.526-28.036 17.526-28.036s17.038 2.034 17.038 28.036h34.565c.987-28.406 17.46-28.036 17.46-28.036s17.1 1.964 17.1 28.036h34.564c1.088-27.736 16.805-28.036 16.805-28.036s17.755 1.216 17.755 28.036h34.565c1.097-27.673 16.743-28.036 16.743-28.036s17.821 1.145 17.821 28.036h34.56c.977-28.475 17.531-28.036 17.531-28.036s17.034 2.041 17.034 28.036h15.79v-53.822c0-181.645-121.125-221.84-205.857-290.991z"
        fill="#CD8F0E" />
</svg>